USFL
nRows=114
nColumns=2
inDegrees=yes
endheader
time	med_gas_r	
3.14919	 46.358906	
3.22077	 46.390432	
3.29234	 46.394666	
3.36391	 46.439019	
3.43548	 46.381539	
3.50706	 46.405134	
3.57863	 46.675545	
3.6502	 46.529929	
3.72177	 46.454932	
3.79335	 46.546178	
3.86492	 46.623454	
3.93649	 46.596469	
4.00806	 46.549107	
4.07964	 46.666015	
4.15121	 46.570318	
4.22278	 46.640953	
4.29435	 46.590543	
4.36593	 46.651352	
4.4375	 46.659600	
4.50907	 46.565730	
4.58065	 46.584621	
4.65222	 46.707502	
4.72379	 46.646631	
4.79536	 46.727996	
4.86694	 46.723247	
4.93851	 46.632998	
5.01008	 46.710362	
5.08165	 46.826650	
5.15323	 46.787517	
5.2248	 46.678234	
5.29637	 46.626579	
5.36794	 46.662046	
5.43952	 46.799706	
5.51109	 46.684445	
5.58266	 46.749259	
5.65423	 46.372958	
5.72581	 46.174047	
5.79738	 46.328125	
5.86895	 46.273044	
5.94052	 42.460817	
6.0121	 37.796610	
6.08367	 35.188714	
6.15524	 31.529491	
6.22681	 30.833448	
6.29839	 30.362169	
6.36996	 30.131190	
6.44153	 29.669163	
6.5131	 29.193515	
6.58468	 29.005754	
6.65625	 26.694656	
6.72782	 26.373440	
6.7994	 26.210245	
6.87097	 25.965637	
6.94254	 25.613084	
7.01411	 24.967787	
7.08569	 25.142857	
7.15726	 24.842111	
7.22883	 24.814293	
7.3004	 24.390689	
7.37198	 24.352469	
7.44355	 24.349378	
7.51512	 24.272521	
7.58669	 24.042289	
7.65827	 23.918239	
7.72984	 23.818537	
7.80141	 23.613995	
7.87298	 23.457301	
7.94456	 23.435027	
8.01613	 23.242707	
8.0877	 23.209457	
8.15927	 23.240542	
8.23085	 22.592763	
8.30242	 23.158979	
8.37399	 22.986855	
8.44556	 23.077848	
8.51714	 23.025748	
8.58871	 23.008138	
8.66028	 23.142718	
8.73185	 23.065838	
8.80343	 23.244480	
8.875	 23.344698	
8.94657	 23.278704	
9.01815	 23.201297	
9.08972	 23.231091	
9.16129	 23.272582	
9.23286	 23.265364	
9.30444	 23.225259	
9.37601	 23.203748	
9.44758	 23.159500	
9.51915	 23.381395	
9.59073	 23.312196	
9.6623	 23.465332	
9.73387	 23.832923	
9.80544	 24.385103	
9.87702	 24.341496	
9.94859	 24.044383	
10.0202	 24.089795	
10.0917	 23.972624	
10.1633	 23.774618	
10.2349	 23.911731	
10.3065	 23.752293	
10.378	 24.015003	
10.4496	 23.913555	
10.5212	 23.565740	
10.5927	 24.678659	
10.6643	 23.930426	
10.7359	 24.542617	
10.8075	 24.578532	
10.879	 25.745812	
10.9506	 25.931664	
11.0222	 24.808125	
11.0937	 25.609485	
11.1653	 25.979527	
11.2369	 24.150161	
